# File produced by Open Asset Import Library (http://www.assimp.sf.net)
# (assimp v3.1.187496374)

mtllib clarinet_reed.obj.mtl

# 48 vertex positions
v  -7.17284 -4.99018 0
v  -7.17266 -4.99018 0
v  -6.81426 -5.50965 0
v  -7.17266 -1.67972 0
v  7.17266 -1.67972 0
v  7.17266 -4.99018 0
v  7.17284 -4.99018 0
v  6.81426 -5.50965 0
v  5.17152 -6.965 0
v  3.22824 -7.98491 0
v  1.09734 -8.51013 0
v  -1.09734 -8.51013 0
v  -3.22824 -7.98491 0
v  -5.17152 -6.965 0
v  -7.17266 -4.99018 48.8404
v  -7.17284 -4.99018 48.8404
v  -6.81426 -5.50965 43.8979
v  -6.2626 -5.99838 39.2479
v  -5.17152 -6.965 39.3495
v  -3.22824 -7.98491 39.4568
v  -1.09734 -8.51013 39.512
v  1.09734 -8.51013 39.512
v  3.22824 -7.98491 39.4568
v  5.17152 -6.965 39.3495
v  6.2626 -5.99838 39.2479
v  6.81426 -5.50965 43.8979
v  7.17284 -4.99018 48.8404
v  7.17266 -4.99018 48.8404
v  7.17266 -1.67972 70.2618
v  7.17266 -2.73869 70.2618
v  -6.30448 -1.67972 72.3173
v  -4.68982 -1.67972 73.6722
v  -7.17266 -1.67972 70.8136
v  -3.9717 -1.67972 73.9336
v  1.65523 -1.67972 73.9336
v  1.65523 -1.67972 73.8413
v  2.70912 -1.67972 73.8413
v  4.68982 -1.67972 73.1204
v  6.30448 -1.67972 71.7656
v  -7.17266 -2.6807 70.8136
v  6.30448 -2.58064 71.7656
v  4.68982 -2.43824 73.1204
v  -4.68982 -2.38024 73.6722
v  -6.30448 -2.52265 72.3173
v  1.65523 -2.35278 73.9336
v  -3.9717 -2.35278 73.9336
v  2.70912 -2.36247 73.8413
v  1.65523 -2.36247 73.8413

# 0 UV coordinates

# 41 vertex normals
vn -0 -0 -1
vn 0 1 0
vn -0.822977 -0.568074 0
vn -0.663124 -0.748509 0
vn -0.663122 -0.748512 1.53401e-07
vn -0.663125 -0.748509 0
vn -0.464721 -0.885457 0
vn -0.239318 -0.970941 0
vn 0 -1 0
vn 0.239318 -0.970941 0
vn 0.464721 -0.885457 0
vn 0.663124 -0.74851 0
vn 0.663125 -0.748509 6.05062e-08
vn 0.663122 -0.748511 0
vn 0.822977 -0.568074 0
vn 1 0 0
vn -1 0 0
vn 0 -0.994522 0.104528
vn 0 -0.994522 0.104527
vn -5.52845e-07 -0.994522 0.104527
vn 0 -0.994522 0.104529
vn -7.81377e-07 -0.994522 0.104532
vn 7.87511e-07 -0.994522 0.104524
vn 0 -0.994522 0.10453
vn -1.12495e-06 -0.994521 0.104534
vn 3.53431e-05 -0.994522 0.104531
vn -2.1431e-05 -0.99452 0.10455
vn 2.92672e-05 -0.994531 0.104446
vn 5.03658e-05 0.104679 0.994506
vn -8.81734e-06 0.104512 0.994524
vn 0 0.104547 0.99452
vn 0 0.104584 0.994516
vn 0 0.104568 0.994518
vn 0.866024 0 0.500002
vn -0.866024 0 0.500002
vn 0.642786 0 0.766046
vn 0.342015 0 0.939694
vn 0 0 1
vn -0.342067 0 0.939676
vn -0.342067 0 0.939675
vn -0.642786 0 0.766046

# Mesh 'solidname' with 92 faces
g solidname
usemtl DefaultMaterial
f  1//1 2//1 3//1
f  3//1 2//1 4//1
f  3//1 4//1 5//1
f  3//1 5//1 6//1
f  3//1 6//1 7//1
f  3//1 7//1 8//1
f  3//1 8//1 9//1
f  3//1 9//1 10//1
f  3//1 10//1 11//1
f  3//1 11//1 12//1
f  3//1 12//1 13//1
f  3//1 13//1 14//1
f  15//2 2//2 16//2
f  16//2 2//2 1//2
f  1//3 3//3 16//3
f  16//3 3//3 17//3
f  17//4 3//4 14//4
f  18//5 17//4 14//4
f  19//6 18//5 14//4
f  19//7 14//7 13//7
f  20//7 19//7 13//7
f  20//8 13//8 12//8
f  21//8 20//8 12//8
f  21//9 12//9 11//9
f  22//9 21//9 11//9
f  22//10 11//10 10//10
f  23//10 22//10 10//10
f  23//11 10//11 9//11
f  24//11 23//11 9//11
f  24//12 9//12 8//12
f  25//13 24//12 8//12
f  26//14 25//13 8//12
f  26//15 8//15 7//15
f  27//15 26//15 7//15
f  27//2 7//2 28//2
f  28//2 7//2 6//2
f  5//16 29//16 30//16
f  6//16 5//16 28//16
f  28//16 5//16 30//16
f  31//2 32//2 33//2
f  33//2 32//2 34//2
f  33//2 34//2 35//2
f  33//2 35//2 36//2
f  33//2 36//2 37//2
f  33//2 37//2 38//2
f  33//2 38//2 39//2
f  33//2 39//2 29//2
f  33//2 29//2 5//2
f  33//2 5//2 4//2
f  40//17 33//17 15//17
f  15//17 33//17 4//17
f  15//17 4//17 2//17
f  15//18 16//18 17//18
f  25//19 15//18 18//19
f  26//20 15//18 25//19
f  28//18 15//18 26//20
f  30//21 15//18 28//18
f  40//22 15//18 30//21
f  27//18 28//18 26//20
f  40//22 30//21 41//23
f  40//22 41//23 42//23
f  40//22 43//22 44//22
f  40//22 45//18 46//18
f  40//22 47//24 48//24
f  40//22 42//25 47//24
f  18//26 15//26 17//26
f  40//27 46//27 43//27
f  40//28 48//28 45//28
f  19//29 20//29 21//29
f  23//30 19//30 22//30
f  22//31 19//31 21//31
f  24//32 19//32 23//32
f  25//33 19//33 24//33
f  18//33 19//33 25//33
f  39//34 41//34 30//34
f  29//34 39//34 30//34
f  31//35 33//35 44//35
f  44//35 33//35 40//35
f  38//36 42//36 41//36
f  39//36 38//36 41//36
f  37//37 47//37 42//37
f  38//37 37//37 42//37
f  36//38 48//38 47//38
f  37//38 36//38 47//38
f  36//16 35//16 45//16
f  48//16 36//16 45//16
f  34//38 46//38 45//38
f  35//38 34//38 45//38
f  46//39 34//39 32//39
f  43//40 46//39 32//39
f  43//41 32//41 31//41
f  44//41 43//41 31//41

